#!OML:ASF F:\VICON\USERDATA\INSTALL\Justin_Nancy\Justin_Nancy.ASF
:FULLY-SPECIFIED
:DEGREES
1
root 0.551874 17.5175 -28.3598 10.5824 -2.50562 6.30571
lowerback 8.39339 -1.87737 -7.04277
upperback -0.705921 -3.11395 1.98307
thorax -4.9734 -1.32205 6.44153
lowerneck -19.4004 -1.07071 -9.84597
upperneck 10.0938 0.179038 6.47279
head 6.19669 0.244064 3.70708
rclavicle 2.98177e-015 -1.74931e-014
rhumerus -75.0215 6.19137 -88.8774
rradius 112.791
rwrist -14.6817
rhand -18.1784 33.8315
rfingers 7.12502
rthumb 8.09817 4.00669
lclavicle 2.98177e-015 -1.74931e-014
lhumerus -27.9576 -13.883 91.1768
lradius 139.665
lwrist 24.264
lhand -14.575 4.52616
lfingers 7.12502
lthumb 11.5746 34.1865
rfemur -53.6653 -2.67837 17.4498
rtibia 54.2607
rfoot 3.09351 -1.22407
rtoes -15.277
lfemur 19.5251 -5.36343 -30.9686
ltibia 15.956
lfoot 36.4723 -8.95935
ltoes 0.0385739
2
root 0.548909 17.5735 -27.7427 10.7271 -2.8386 6.74079
lowerback 8.32163 -1.92177 -7.22476
upperback -0.778233 -3.19444 1.8712
thorax -4.9937 -1.35525 6.43299
lowerneck -19.5594 -1.1813 -9.72167
upperneck 9.70834 0.0716127 6.13373
head 6.10766 0.175969 3.55943
rclavicle -3.18055e-015 -1.74931e-014
rhumerus -75.0684 5.78701 -88.4107
rradius 113.15
rwrist -14.5468
rhand -18.5008 33.9068
rfingers 7.12502
rthumb 7.78695 4.0702
lclavicle -3.18055e-015 -1.74931e-014
lhumerus -28.0954 -14.738 90.7385
lradius 139.409
lwrist 23.9125
lhand -13.7851 5.39345
lfingers 7.12502
lthumb 12.3363 35.0095
rfemur -52.6278 -2.30006 16.8945
rtibia 48.0663
rfoot 5.17561 -1.02044
rtoes -14.0536
lfemur 20.2887 -5.73803 -31.7267
ltibia 16.386
lfoot 34.9193 -9.93364
ltoes -5.25823
3
root 0.541972 17.6261 -27.1221 10.8294 -3.00594 7.28649
lowerback 8.08877 -2.03641 -7.37114
upperback -0.71522 -3.35678 1.58361
thorax -4.77832 -1.4475 6.21073
lowerneck -19.7469 -1.21639 -9.57242
upperneck 9.32941 0.0207303 6.06977
head 6.02022 0.159792 3.50515
rclavicle 3.49861e-014 0
rhumerus -74.661 5.21804 -88.1362
rradius 113.191
rwrist -14.2909
rhand -18.1673 33.9931
rfingers 7.12502
rthumb 8.10886 4.16869
lclavicle 3.49861e-014 0
lhumerus -28.0875 -15.486 90.0274
lradius 138.881
lwrist 23.9755
lhand -12.592 6.95515
lfingers 7.12502
lthumb 13.4865 36.4985
rfemur -51.5901 -1.97516 16.2235
rtibia 42.4843
rfoot 6.7612 -1.041
rtoes -13.3785
lfemur 20.6764 -6.20578 -32.53
ltibia 17.5479
lfoot 34.4473 -10.6954
ltoes -9.05124
4
root 0.529088 17.6621 -26.5057 10.8379 -3.19968 7.85355
lowerback 8.07386 -2.07802 -7.76906
upperback -0.689796 -3.45788 1.40604
thorax -4.71625 -1.49298 6.25578
lowerneck -20.0467 -1.24956 -9.67599
upperneck 9.29692 0.0262773 6.12073
head 6.0572 0.167164 3.54109
rclavicle 1.05356e-014 1.19271e-014
rhumerus -74.1825 4.79357 -87.7686
rradius 113.164
rwrist -13.9856
rhand -18.1544 34.1576
rfingers 7.12502
rthumb 8.12136 4.33365
lclavicle 1.05356e-014 1.19271e-014
lhumerus -28.0399 -16.154 89.6264
lradius 137.984
lwrist 23.9125
lhand -12.5431 6.53411
lfingers 7.12502
lthumb 13.5336 36.0743
rfemur -50.2285 -1.58459 15.6083
rtibia 36.8554
rfoot 8.18931 -1.4471
rtoes -14.0068
lfemur 20.9824 -6.4227 -33.2345
ltibia 19.0654
lfoot 35.2678 -11.7069
ltoes -9.33841
5
root 0.516131 17.6814 -25.8939 10.5381 -3.02201 8.49845
lowerback 8.54468 -2.12645 -8.18207
upperback -0.651321 -3.61159 1.21741
thorax -4.90536 -1.55156 6.3317
lowerneck -20.957 -1.17699 -9.92721
upperneck 10.1804 0.216506 6.43746
head 6.47169 0.275136 3.72848
rclavicle 5.76476e-015 2.54444e-014
rhumerus -73.6867 4.2079 -87.3909
rradius 113.084
rwrist -13.5752
rhand -17.9833 33.9582
rfingers 7.12502
rthumb 8.28647 4.14069
lclavicle 5.76476e-015 2.54444e-014
lhumerus -28.2365 -16.8204 89.5162
lradius 136.883
lwrist 23.7433
lhand -12.9894 5.47847
lfingers 7.12502
lthumb 13.1034 35.0468
rfemur -48.4746 -1.5339 14.9378
rtibia 31.8592
rfoot 8.85149 -2.96812
rtoes -13.7127
lfemur 21.2489 -6.60889 -33.82
ltibia 21.2474
lfoot 38.5316 -12.7698
ltoes 1.0493
6
root 0.503501 17.6861 -25.2828 10.2196 -2.83253 9.16943
lowerback 8.832 -2.23169 -8.62538
upperback -0.581048 -3.8302 1.03621
thorax -4.94235 -1.6499 6.42756
lowerneck -20.7057 -1.27213 -9.86866
upperneck 9.50936 0.0929472 6.23117
head 6.22499 0.206747 3.6242
rclavicle 1.59028e-014 -7.95139e-015
rhumerus -73.0027 3.77502 -87.1419
rradius 112.767
rwrist -12.9673
rhand -17.7392 33.9224
rfingers 7.12502
rthumb 8.52205 4.11441
lclavicle 1.59028e-014 -7.95139e-015
lhumerus -28.6916 -17.0671 89.5261
lradius 135.533
lwrist 23.4067
lhand -13.55 5.26268
lfingers 7.12502
lthumb 12.563 34.865
rfemur -46.7394 -1.49111 14.2657
rtibia 27.6577
rfoot 9.07808 -4.7355
rtoes -14.7907
lfemur 21.0959 -6.69776 -34.3686
ltibia 24.0871
lfoot 40.3323 -12.9947
ltoes 8.43498
7
root 0.494036 17.6767 -24.677 10.1205 -3.25029 9.62937
lowerback 8.76634 -2.15419 -9.0827
upperback -0.572035 -3.77316 0.949707
thorax -4.88441 -1.61404 6.58304
lowerneck -20.2981 -1.20528 -9.91898
upperneck 9.07564 0.183862 6.0969
head 6.01277 0.239061 3.58788
rclavicle 3.73715e-014 2.14687e-014
rhumerus -72.1443 3.59166 -86.9137
rradius 112.342
rwrist -12.4795
rhand -18.2358 33.8854
rfingers 7.12502
rthumb 8.04279 4.05839
lclavicle 3.73715e-014 2.14687e-014
lhumerus -29.3698 -17.0147 89.82
lradius 134.075
lwrist 23.325
lhand -13.555 5.10933
lfingers 7.12502
lthumb 12.5581 34.7119
rfemur -45.5796 -1.37421 14.1144
rtibia 24.461
rfoot 9.48201 -5.39706
rtoes -16.4733
lfemur 20.2833 -6.27699 -34.835
ltibia 27.3886
lfoot 41.4796 -12.7403
ltoes 12.3861
8
root 0.481941 17.6633 -24.0645 9.99675 -3.54784 9.66047
lowerback 8.54122 -2.0362 -9.10187
upperback -0.383857 -3.58732 0.926248
thorax -4.5905 -1.54473 6.52856
lowerneck -20.8743 -1.25326 -10.1178
upperneck 9.60792 0.184651 6.35179
head 6.27568 0.252559 3.71724
rclavicle -2.94201e-014 1.66979e-014
rhumerus -70.9214 3.23859 -86.6323
rradius 111.933
rwrist -12.4629
rhand -18.6623 34.0053
rfingers 7.12502
rthumb 7.63116 4.16299
lclavicle -2.94201e-014 1.66979e-014
lhumerus -29.6665 -17.0973 89.937
lradius 132.359
lwrist 23.1821
lhand -13.7671 5.52299
lfingers 7.12502
lthumb 12.3537 35.138
rfemur -44.5369 -1.35531 14.5745
rtibia 22.2711
rfoot 10.3288 -4.94739
rtoes -18.2565
lfemur 19.2538 -5.65385 -34.667
ltibia 31.106
lfoot 42.5851 -12.8613
ltoes 14.5103
9
root 0.465871 17.643 -23.4515 9.68056 -3.54786 9.50463
lowerback 8.52595 -2.00129 -8.8979
upperback -0.123205 -3.50551 0.932857
thorax -4.33054 -1.53182 6.40151
lowerneck -21.276 -1.34338 -10.1153
upperneck 9.728 0.0909164 6.42284
head 6.38657 0.216958 3.73567
rclavicle 1.23246e-014 1.19271e-014
rhumerus -69.653 2.97142 -86.4764
rradius 111.563
rwrist -12.7251
rhand -18.4169 34.1164
rfingers 7.12502
rthumb 7.86795 4.28282
lclavicle 1.23246e-014 1.19271e-014
lhumerus -29.6772 -17.2374 89.9936
lradius 130.2
lwrist 22.6157
lhand -14.8421 5.58641
lfingers 7.12502
lthumb 11.317 35.2611
rfemur -43.3202 -1.60681 15.3625
rtibia 21.0274
rfoot 11.2052 -4.4019
rtoes -17.5964
lfemur 18.1962 -5.08533 -34.1092
ltibia 35.2067
lfoot 43.1147 -12.6823
ltoes 15.7983
10
root 0.449804 17.6052 -22.8478 9.23527 -3.58764 9.08354
lowerback 8.85442 -1.88892 -8.51569
upperback 0.0405977 -3.33434 1.06958
thorax -4.3837 -1.45664 6.32662
lowerneck -21.1082 -1.45555 -10.2627
upperneck 9.51274 -0.0369288 6.46597
head 6.30142 0.154431 3.75482
rclavicle 1.59028e-014 -6.36111e-015
rhumerus -68.4717 2.83674 -86.2274
rradius 111.12
rwrist -12.9921
rhand -18.0768 34.1487
rfingers 7.12502
rthumb 8.19624 4.32772
lclavicle 1.59028e-014 -6.36111e-015
lhumerus -29.958 -17.3047 90.3155
lradius 127.884
lwrist 22.0539
lhand -15.8391 5.05523
lfingers 7.12502
lthumb 10.3554 34.7803
rfemur -42.0773 -2.05777 16.6746
rtibia 20.7392
rfoot 11.4912 -3.93277
rtoes -18.694
lfemur 16.9245 -4.38948 -33.2225
ltibia 39.635
lfoot 42.8409 -12.1108
ltoes 15.6476
11
root 0.433687 17.5496 -22.2511 8.81935 -3.54796 8.48017
lowerback 9.385 -1.838 -8.0248
upperback 0.030353 -3.25089 1.29811
thorax -4.71947 -1.40648 6.31349
lowerneck -20.6366 -1.54342 -10.3775
upperneck 9.59273 -0.171506 6.44685
head 6.26423 0.0754618 3.74949
rclavicle 3.12092e-014 -1.43125e-014
rhumerus -67.4155 2.91037 -86.147
rradius 110.618
rwrist -13.2183
rhand -18.0475 34.069
rfingers 7.12502
rthumb 8.22451 4.24905
lclavicle 3.12092e-014 -1.43125e-014
lhumerus -30.6314 -16.9948 90.7808
lradius 125.611
lwrist 21.467
lhand -15.9501 4.58484
lfingers 7.12502
lthumb 10.2483 34.3152
rfemur -41.166 -2.75552 18.3089
rtibia 21.6082
rfoot 11.1378 -2.82399
rtoes -20.8046
lfemur 15.4344 -3.70078 -32.0893
ltibia 44.275
lfoot 42.1538 -12.0672
ltoes 14.1935
12
root 0.416611 17.481 -21.6601 8.41654 -3.6618 7.79744
lowerback 9.91166 -1.66996 -7.35274
upperback 0.0095743 -2.99001 1.40129
thorax -5.10779 -1.27288 6.04092
lowerneck -20.3669 -1.71108 -10.4093
upperneck 9.8915 -0.438393 6.54617
head 6.34171 -0.0547652 3.76075
rclavicle -3.8763e-014 0
rhumerus -66.3239 2.70878 -86.2102
rradius 110.146
rwrist -13.154
rhand -18.3862 33.8574
rfingers 7.12502
rthumb 7.89764 4.02496
lclavicle -3.8763e-014 0
lhumerus -31.2333 -16.9432 91.0241
lradius 123.316
lwrist 20.8863
lhand -15.7327 4.66479
lfingers 7.12502
lthumb 10.458 34.3847
rfemur -40.6388 -3.46142 20.0659
rtibia 23.6479
rfoot 10.4102 -0.789326
rtoes -11.0709
lfemur 13.7286 -2.77623 -30.7956
ltibia 49.0134
lfoot 41.0639 -12.0008
ltoes 12.8916
13
root 0.399332 17.4065 -21.0691 7.92643 -3.59972 7.07
lowerback 10.3667 -1.58233 -6.54435
upperback 0.228565 -2.7997 1.48045
thorax -5.19348 -1.20032 5.65803
lowerneck -20.7711 -1.78748 -10.2804
upperneck 10.1454 -0.553103 6.62891
head 6.49889 -0.0958317 3.76126
rclavicle -4.83047e-014 -2.22639e-014
rhumerus -64.8184 2.5438 -86.4009
rradius 109.626
rwrist -12.9269
rhand -18.3353 33.7416
rfingers 7.12502
rthumb 7.94671 3.911
lclavicle -4.83047e-014 -2.22639e-014
lhumerus -31.6361 -16.8201 91.1826
lradius 120.947
lwrist 20.2338
lhand -15.789 4.87854
lfingers 7.12502
lthumb 10.4037 34.6011
rfemur -40.2213 -4.38394 21.8353
rtibia 26.822
rfoot 9.05723 2.09359
rtoes 2.23649
lfemur 12.1052 -2.01185 -29.3387
ltibia 53.7249
lfoot 39.7495 -11.0266
ltoes 13.2528
14
root 0.384135 17.3217 -20.4806 7.27736 -3.4895 6.5174
lowerback 11.0296 -1.57271 -5.97928
upperback 0.425202 -2.74761 1.59276
thorax -5.38431 -1.18412 5.47661
lowerneck -21.0712 -1.7685 -10.1826
upperneck 10.3356 -0.53459 6.66608
head 6.60705 -0.07805 3.76494
rclavicle 3.18055e-014 -1.27222e-014
rhumerus -63.2217 2.79235 -86.6076
rradius 108.994
rwrist -12.6831
rhand -18.3993 33.5728
rfingers 7.12502
rthumb 7.88498 3.73987
lclavicle 3.18055e-014 -1.27222e-014
lhumerus -32.1321 -16.3013 91.4632
lradius 118.471
lwrist 19.5713
lhand -15.938 4.86851
lfingers 7.12502
lthumb 10.26 34.5983
rfemur -39.6709 -5.05616 23.0411
rtibia 30.8908
rfoot 5.07329 2.21932
rtoes 5.08737
lfemur 10.7038 -1.45696 -28.0996
ltibia 58.327
lfoot 38.2376 -9.26628
ltoes 14.9248
